<?xml version="1.0" encoding="UTF-8"?>
<mxfile host="app.diagrams.net" modified="2025-07-05" agent="DataGeneratorRobloxRenderer" version="21.1.2">
  <diagram name="Generated Data" id="generated-data">
    <mxGraphModel dx="1434" dy="823" grid="1" gridSize="10" guides="1" tooltips="1" connect="1" arrows="1" fold="1" page="1" pageScale="1" pageWidth="2400" pageHeight="1600" math="0" shadow="0">
      <root>
        <mxCell id="0" />
        <mxCell id="1" parent="0" />
        <mxCell id="2" value="Iris Miller\nPeople\npeople01" style="rounded=1;whiteSpace=wrap;html=1;fillColor=#4A90E2;strokeColor=#000000;fontColor=#FFFFFF;" vertex="1" parent="1">
          <mxGeometry x="0" y="50" width="120" height="60" as="geometry" />
        </mxCell>
        <mxCell id="3" value="Daisy\nAnimals\nanimals01" style="rounded=1;whiteSpace=wrap;html=1;fillColor=#F5A623;strokeColor=#000000;fontColor=#FFFFFF;" vertex="1" parent="1">
          <mxGeometry x="400" y="75" width="120" height="60" as="geometry" />
        </mxCell>
        <mxCell id="4" value="Max\nAnimals\nanimals02" style="rounded=1;whiteSpace=wrap;html=1;fillColor=#F5A623;strokeColor=#000000;fontColor=#FFFFFF;" vertex="1" parent="1">
          <mxGeometry x="400" y="100" width="120" height="60" as="geometry" />
        </mxCell>
        <mxCell id="5" value="Alice Williams\nPeople\npeople02" style="rounded=1;whiteSpace=wrap;html=1;fillColor=#4A90E2;strokeColor=#000000;fontColor=#FFFFFF;" vertex="1" parent="1">
          <mxGeometry x="0" y="100" width="120" height="60" as="geometry" />
        </mxCell>
        <mxCell id="6" value="Charlie Brown\nPeople\npeople03" style="rounded=1;whiteSpace=wrap;html=1;fillColor=#4A90E2;strokeColor=#000000;fontColor=#FFFFFF;" vertex="1" parent="1">
          <mxGeometry x="100" y="100" width="120" height="60" as="geometry" />
        </mxCell>
        <mxCell id="7" value="Grace Rodriguez\nPeople\npeople04" style="rounded=1;whiteSpace=wrap;html=1;fillColor=#4A90E2;strokeColor=#000000;fontColor=#FFFFFF;" vertex="1" parent="1">
          <mxGeometry x="200" y="100" width="120" height="60" as="geometry" />
        </mxCell>
        <mxCell id="8" value="Rocky\nAnimals\nanimals03" style="rounded=1;whiteSpace=wrap;html=1;fillColor=#F5A623;strokeColor=#000000;fontColor=#FFFFFF;" vertex="1" parent="1">
          <mxGeometry x="500" y="100" width="120" height="60" as="geometry" />
        </mxCell>
        <mxCell id="9" value="Wants" style="edgeStyle=orthogonalEdgeStyle;rounded=0;orthogonalLoop=1;jettySize=auto;html=1;strokeColor=#9370DB;strokeWidth=2;" edge="1" parent="1" source="6" target="7">
          <mxGeometry relative="1" as="geometry" />
        </mxCell>
        <mxCell id="10" value="Wants" style="edgeStyle=orthogonalEdgeStyle;rounded=0;orthogonalLoop=1;jettySize=auto;html=1;strokeColor=#9370DB;strokeWidth=2;" edge="1" parent="1" source="8" target="5">
          <mxGeometry relative="1" as="geometry" />
        </mxCell>
        <mxCell id="11" value="Eats" style="edgeStyle=orthogonalEdgeStyle;rounded=0;orthogonalLoop=1;jettySize=auto;html=1;strokeColor=#FFD700;strokeWidth=2;" edge="1" parent="1" source="4" target="3">
          <mxGeometry relative="1" as="geometry" />
        </mxCell>
        <mxCell id="12" value="Owns" style="edgeStyle=orthogonalEdgeStyle;rounded=0;orthogonalLoop=1;jettySize=auto;html=1;strokeColor=#8B4513;strokeWidth=2;" edge="1" parent="1" source="5" target="4">
          <mxGeometry relative="1" as="geometry" />
        </mxCell>
        <mxCell id="13" value="Owns" style="edgeStyle=orthogonalEdgeStyle;rounded=0;orthogonalLoop=1;jettySize=auto;html=1;strokeColor=#8B4513;strokeWidth=2;" edge="1" parent="1" source="8" target="4">
          <mxGeometry relative="1" as="geometry" />
        </mxCell>
        <mxCell id="14" value="Wants" style="edgeStyle=orthogonalEdgeStyle;rounded=0;orthogonalLoop=1;jettySize=auto;html=1;strokeColor=#9370DB;strokeWidth=2;" edge="1" parent="1" source="8" target="6">
          <mxGeometry relative="1" as="geometry" />
        </mxCell>
        <mxCell id="15" value="Wants" style="edgeStyle=orthogonalEdgeStyle;rounded=0;orthogonalLoop=1;jettySize=auto;html=1;strokeColor=#9370DB;strokeWidth=2;" edge="1" parent="1" source="5" target="3">
          <mxGeometry relative="1" as="geometry" />
        </mxCell>
      </root>
    </mxGraphModel>
  </diagram>
</mxfile>